<mxfile host="app.diagrams.net" modified="2023-02-24T09:20:50.269Z" agent="5.0 (Windows NT 10.0; WOW64) AppleWebKit/537.36 (KHTML, like Gecko) Chrome/80.0.3987.87 Safari/537.36 SE 2.X MetaSr 1.0" etag="KyD5cH4KzsGZp4ApD6UL" version="20.8.23" type="github">
  <diagram name="第 1 页" id="EFqIKvGod9P9-3a57-Ll">
    <mxGraphModel dx="1221" dy="649" grid="0" gridSize="10" guides="1" tooltips="1" connect="1" arrows="1" fold="1" page="0" pageScale="1" pageWidth="827" pageHeight="1169" math="0" shadow="0">
      <root>
        <mxCell id="0" />
        <mxCell id="1" parent="0" />
        <mxCell id="e48WEqZ7E81Lrx6QJCwg-1" value="" style="rounded=0;whiteSpace=wrap;html=1;dashed=1;fillColor=#fff2cc;strokeColor=#d6b656;" vertex="1" parent="1">
          <mxGeometry x="60" y="320" width="400" height="170" as="geometry" />
        </mxCell>
        <mxCell id="e48WEqZ7E81Lrx6QJCwg-2" value="" style="rounded=0;whiteSpace=wrap;html=1;fillColor=#e1d5e7;dashed=1;strokeColor=#9673a6;" vertex="1" parent="1">
          <mxGeometry x="260" y="330" width="570" height="150" as="geometry" />
        </mxCell>
        <mxCell id="e48WEqZ7E81Lrx6QJCwg-3" value="&lt;h2&gt;&lt;b style=&quot;font-size: 16px;&quot;&gt;Hive SQL翻译执行器&lt;/b&gt;&lt;/h2&gt;翻译SQL到MR，并提交执行" style="rounded=1;whiteSpace=wrap;html=1;" vertex="1" parent="1">
          <mxGeometry x="70" y="360" width="160" height="90" as="geometry" />
        </mxCell>
        <mxCell id="e48WEqZ7E81Lrx6QJCwg-6" style="edgeStyle=orthogonalEdgeStyle;rounded=0;orthogonalLoop=1;jettySize=auto;html=1;entryX=0.5;entryY=0;entryDx=0;entryDy=0;" edge="1" parent="1" source="e48WEqZ7E81Lrx6QJCwg-5" target="e48WEqZ7E81Lrx6QJCwg-3">
          <mxGeometry relative="1" as="geometry" />
        </mxCell>
        <mxCell id="e48WEqZ7E81Lrx6QJCwg-5" value="&lt;h1&gt;SQL语句&lt;/h1&gt;&lt;p&gt;SELECT * FROM stu&lt;/p&gt;" style="text;html=1;strokeColor=default;fillColor=none;spacing=5;spacingTop=-20;whiteSpace=wrap;overflow=hidden;rounded=0;" vertex="1" parent="1">
          <mxGeometry x="60" y="190" width="180" height="70" as="geometry" />
        </mxCell>
        <mxCell id="e48WEqZ7E81Lrx6QJCwg-8" value="&lt;h2 style=&quot;border-color: var(--border-color);&quot;&gt;&lt;/h2&gt;&lt;h2&gt;&lt;span style=&quot;font-size: 16px;&quot;&gt;&lt;b&gt;MetaStore服务&lt;/b&gt;&lt;/span&gt;&lt;/h2&gt;提供元数据管理服务" style="rounded=1;whiteSpace=wrap;html=1;" vertex="1" parent="1">
          <mxGeometry x="290" y="360" width="160" height="90" as="geometry" />
        </mxCell>
        <mxCell id="e48WEqZ7E81Lrx6QJCwg-25" style="edgeStyle=orthogonalEdgeStyle;rounded=0;orthogonalLoop=1;jettySize=auto;html=1;entryX=0.244;entryY=0.005;entryDx=0;entryDy=0;entryPerimeter=0;strokeWidth=2;fontSize=12;" edge="1" parent="1" source="e48WEqZ7E81Lrx6QJCwg-9" target="e48WEqZ7E81Lrx6QJCwg-24">
          <mxGeometry relative="1" as="geometry" />
        </mxCell>
        <mxCell id="e48WEqZ7E81Lrx6QJCwg-28" style="edgeStyle=orthogonalEdgeStyle;rounded=0;orthogonalLoop=1;jettySize=auto;html=1;entryX=0;entryY=0.5;entryDx=0;entryDy=0;strokeWidth=2;fontSize=12;" edge="1" parent="1" source="e48WEqZ7E81Lrx6QJCwg-9" target="e48WEqZ7E81Lrx6QJCwg-3">
          <mxGeometry relative="1" as="geometry">
            <Array as="points">
              <mxPoint x="50" y="530" />
              <mxPoint x="50" y="405" />
            </Array>
          </mxGeometry>
        </mxCell>
        <mxCell id="e48WEqZ7E81Lrx6QJCwg-9" value="mapReduce" style="rounded=1;whiteSpace=wrap;html=1;strokeColor=default;fontSize=16;fillColor=none;" vertex="1" parent="1">
          <mxGeometry x="70" y="510" width="90" height="40" as="geometry" />
        </mxCell>
        <mxCell id="e48WEqZ7E81Lrx6QJCwg-12" value="" style="endArrow=classic;startArrow=classic;html=1;rounded=0;strokeWidth=2;fontSize=16;exitX=1;exitY=0.5;exitDx=0;exitDy=0;entryX=0;entryY=0.5;entryDx=0;entryDy=0;" edge="1" parent="1" source="e48WEqZ7E81Lrx6QJCwg-3" target="e48WEqZ7E81Lrx6QJCwg-8">
          <mxGeometry width="50" height="50" relative="1" as="geometry">
            <mxPoint x="280" y="540" as="sourcePoint" />
            <mxPoint x="390" y="530" as="targetPoint" />
          </mxGeometry>
        </mxCell>
        <mxCell id="e48WEqZ7E81Lrx6QJCwg-13" value="&lt;b&gt;&lt;font style=&quot;font-size: 22px;&quot;&gt;Hive&lt;/font&gt;&lt;/b&gt;" style="text;html=1;strokeColor=none;fillColor=none;align=center;verticalAlign=middle;whiteSpace=wrap;rounded=0;fontSize=16;" vertex="1" parent="1">
          <mxGeometry x="230" y="290" width="60" height="30" as="geometry" />
        </mxCell>
        <mxCell id="e48WEqZ7E81Lrx6QJCwg-14" value="&lt;b&gt;&lt;font style=&quot;font-size: 22px;&quot;&gt;Spark&lt;/font&gt;&lt;/b&gt;" style="text;html=1;strokeColor=none;fillColor=none;align=center;verticalAlign=middle;whiteSpace=wrap;rounded=0;fontSize=16;" vertex="1" parent="1">
          <mxGeometry x="717" y="292" width="60" height="30" as="geometry" />
        </mxCell>
        <mxCell id="e48WEqZ7E81Lrx6QJCwg-16" value="&lt;font style=&quot;font-size: 12px;&quot;&gt;表位置、数据类型&lt;/font&gt;" style="text;html=1;strokeColor=none;fillColor=none;align=center;verticalAlign=middle;whiteSpace=wrap;rounded=0;fontSize=22;" vertex="1" parent="1">
          <mxGeometry x="234" y="386" width="60" height="30" as="geometry" />
        </mxCell>
        <mxCell id="e48WEqZ7E81Lrx6QJCwg-26" style="edgeStyle=orthogonalEdgeStyle;rounded=0;orthogonalLoop=1;jettySize=auto;html=1;entryX=0.244;entryY=-0.019;entryDx=0;entryDy=0;entryPerimeter=0;strokeWidth=2;fontSize=12;" edge="1" parent="1" source="e48WEqZ7E81Lrx6QJCwg-19" target="e48WEqZ7E81Lrx6QJCwg-24">
          <mxGeometry relative="1" as="geometry" />
        </mxCell>
        <mxCell id="e48WEqZ7E81Lrx6QJCwg-19" value="mapReduce" style="rounded=1;whiteSpace=wrap;html=1;strokeColor=default;fontSize=16;fillColor=none;" vertex="1" parent="1">
          <mxGeometry x="190" y="510" width="90" height="40" as="geometry" />
        </mxCell>
        <mxCell id="e48WEqZ7E81Lrx6QJCwg-27" style="edgeStyle=orthogonalEdgeStyle;rounded=0;orthogonalLoop=1;jettySize=auto;html=1;strokeWidth=2;fontSize=12;" edge="1" parent="1" source="e48WEqZ7E81Lrx6QJCwg-20">
          <mxGeometry relative="1" as="geometry">
            <mxPoint x="260" y="590" as="targetPoint" />
            <Array as="points">
              <mxPoint x="385" y="570" />
              <mxPoint x="260" y="570" />
            </Array>
          </mxGeometry>
        </mxCell>
        <mxCell id="e48WEqZ7E81Lrx6QJCwg-20" value="mapReduce" style="rounded=1;whiteSpace=wrap;html=1;strokeColor=default;fontSize=16;fillColor=none;" vertex="1" parent="1">
          <mxGeometry x="340" y="510" width="90" height="40" as="geometry" />
        </mxCell>
        <mxCell id="e48WEqZ7E81Lrx6QJCwg-22" value="&lt;b&gt;&lt;font style=&quot;font-size: 22px;&quot;&gt;...&lt;/font&gt;&lt;/b&gt;" style="text;html=1;strokeColor=none;fillColor=none;align=center;verticalAlign=middle;whiteSpace=wrap;rounded=0;fontSize=16;" vertex="1" parent="1">
          <mxGeometry x="280" y="515" width="60" height="30" as="geometry" />
        </mxCell>
        <mxCell id="e48WEqZ7E81Lrx6QJCwg-23" value="" style="endArrow=classic;html=1;rounded=0;strokeWidth=2;fontSize=12;exitX=0.5;exitY=1;exitDx=0;exitDy=0;entryX=0.5;entryY=0;entryDx=0;entryDy=0;" edge="1" parent="1" source="e48WEqZ7E81Lrx6QJCwg-3" target="e48WEqZ7E81Lrx6QJCwg-9">
          <mxGeometry width="50" height="50" relative="1" as="geometry">
            <mxPoint x="-40" y="560" as="sourcePoint" />
            <mxPoint x="10" y="510" as="targetPoint" />
          </mxGeometry>
        </mxCell>
        <mxCell id="e48WEqZ7E81Lrx6QJCwg-24" value="HDFS/本地文件系统" style="rounded=1;whiteSpace=wrap;html=1;strokeColor=default;fontSize=16;fillColor=none;" vertex="1" parent="1">
          <mxGeometry x="70" y="590" width="780" height="40" as="geometry" />
        </mxCell>
        <mxCell id="e48WEqZ7E81Lrx6QJCwg-29" value="&lt;font style=&quot;font-size: 12px;&quot;&gt;结果&lt;br&gt;返回&lt;/font&gt;" style="text;html=1;strokeColor=none;fillColor=none;align=center;verticalAlign=middle;whiteSpace=wrap;rounded=0;fontSize=22;" vertex="1" parent="1">
          <mxGeometry y="440" width="60" height="30" as="geometry" />
        </mxCell>
        <mxCell id="e48WEqZ7E81Lrx6QJCwg-30" value="&lt;h2&gt;&lt;b style=&quot;font-size: 16px;&quot;&gt;SparkSQL翻译执行器&lt;/b&gt;&lt;/h2&gt;翻译SQL到RDD算子，并提交执行" style="rounded=1;whiteSpace=wrap;html=1;" vertex="1" parent="1">
          <mxGeometry x="590" y="360" width="200" height="90" as="geometry" />
        </mxCell>
        <mxCell id="e48WEqZ7E81Lrx6QJCwg-31" value="" style="endArrow=classic;startArrow=classic;html=1;rounded=0;strokeWidth=2;fontSize=12;exitX=1;exitY=0.5;exitDx=0;exitDy=0;entryX=0;entryY=0.5;entryDx=0;entryDy=0;dashed=1;" edge="1" parent="1" source="e48WEqZ7E81Lrx6QJCwg-8" target="e48WEqZ7E81Lrx6QJCwg-30">
          <mxGeometry width="50" height="50" relative="1" as="geometry">
            <mxPoint x="510" y="440" as="sourcePoint" />
            <mxPoint x="560" y="390" as="targetPoint" />
          </mxGeometry>
        </mxCell>
        <mxCell id="e48WEqZ7E81Lrx6QJCwg-32" value="&lt;font style=&quot;font-size: 12px;&quot;&gt;表位置、数据类型&lt;/font&gt;" style="text;html=1;strokeColor=none;fillColor=none;align=center;verticalAlign=middle;whiteSpace=wrap;rounded=0;fontSize=22;" vertex="1" parent="1">
          <mxGeometry x="490" y="386" width="60" height="30" as="geometry" />
        </mxCell>
        <mxCell id="e48WEqZ7E81Lrx6QJCwg-36" style="edgeStyle=orthogonalEdgeStyle;rounded=0;orthogonalLoop=1;jettySize=auto;html=1;entryX=0.75;entryY=0;entryDx=0;entryDy=0;strokeWidth=2;fontSize=12;" edge="1" parent="1" source="e48WEqZ7E81Lrx6QJCwg-34" target="e48WEqZ7E81Lrx6QJCwg-24">
          <mxGeometry relative="1" as="geometry" />
        </mxCell>
        <mxCell id="e48WEqZ7E81Lrx6QJCwg-34" value="RDD代码" style="rounded=1;whiteSpace=wrap;html=1;strokeColor=default;fontSize=16;fillColor=none;" vertex="1" parent="1">
          <mxGeometry x="645" y="510" width="90" height="40" as="geometry" />
        </mxCell>
        <mxCell id="e48WEqZ7E81Lrx6QJCwg-35" value="" style="endArrow=classic;html=1;rounded=0;strokeWidth=2;fontSize=12;exitX=0.5;exitY=1;exitDx=0;exitDy=0;" edge="1" parent="1" source="e48WEqZ7E81Lrx6QJCwg-30" target="e48WEqZ7E81Lrx6QJCwg-34">
          <mxGeometry width="50" height="50" relative="1" as="geometry">
            <mxPoint x="800" y="540" as="sourcePoint" />
            <mxPoint x="850" y="490" as="targetPoint" />
          </mxGeometry>
        </mxCell>
        <mxCell id="e48WEqZ7E81Lrx6QJCwg-38" style="edgeStyle=orthogonalEdgeStyle;rounded=0;orthogonalLoop=1;jettySize=auto;html=1;strokeWidth=2;fontSize=12;" edge="1" parent="1" source="e48WEqZ7E81Lrx6QJCwg-37" target="e48WEqZ7E81Lrx6QJCwg-30">
          <mxGeometry relative="1" as="geometry" />
        </mxCell>
        <mxCell id="e48WEqZ7E81Lrx6QJCwg-37" value="&lt;h1&gt;SQL语句&lt;/h1&gt;&lt;p&gt;SELECT * FROM stu&lt;/p&gt;" style="text;html=1;strokeColor=default;fillColor=none;spacing=5;spacingTop=-20;whiteSpace=wrap;overflow=hidden;rounded=0;" vertex="1" parent="1">
          <mxGeometry x="600" y="190" width="180" height="70" as="geometry" />
        </mxCell>
        <mxCell id="e48WEqZ7E81Lrx6QJCwg-39" value="&lt;b&gt;&lt;font style=&quot;font-size: 22px;&quot;&gt;Spark on Hive&lt;/font&gt;&lt;/b&gt;" style="text;html=1;strokeColor=none;fillColor=none;align=center;verticalAlign=middle;whiteSpace=wrap;rounded=0;fontSize=16;fontColor=#FF3333;" vertex="1" parent="1">
          <mxGeometry x="444" y="445" width="171" height="30" as="geometry" />
        </mxCell>
      </root>
    </mxGraphModel>
  </diagram>
</mxfile>
